# xmcd
#
# Track frame offsets:
#	150
#	10343
#	21892
#	34223
#	44123
#	57815
#	69068
#	82726
#	92581
#	106412
#	117100
#	130368
#	140574
#	151852
#	162034
#	173738
#	183294
#	195304
#	205699
#	217008
#	227802
#	241050
#	251797
#	262418
#	275546
#
# Disc length: 3874 seconds
#
# Revision: 0
# Processed by: cddbd v1.5.1PL2 Copyright (c) Steve Scherf et al.
# Submitted via: EasyCDDAExtractor 9.1.3.1
#
DISCID=570f2019
DTITLE=GuitarSlim (Feat. Roosevelt Brown and Huey Smith) - New Orleans Guitar (1
DTITLE=947-55) - Disc C (Guitar Slim, 1951-55)
DYEAR=2006
DGENRE=Blues
TTITLE0=Bad Luck Is On Me
TTITLE1=New Arrival
TTITLE2=Standin' At The Station
TTITLE3=Cryin' In The Mornin'
TTITLE4=The Things I Used To Do
TTITLE5=Well I Done Got Over It
TTITLE6=The Story Of My Life
TTITLE7=Letter To My Girlfriend
TTITLE8=Trouble Don't Last
TTITLE9=Later For You Baby
TTITLE10=Bad Luck Blues
TTITLE11=Twenty-Five Lies
TTITLE12=Sufferin' Mind
TTITLE13=Stand By Me
TTITLE14=Guitar Slim
TTITLE15=Our Only Child
TTITLE16=Reap What You Sow
TTITLE17=I Want To Love-A You
TTITLE18=Think It Over
TTITLE19=Quicksand
TTITLE20=You're Gonna Miss Me
TTITLE21=I Got Sumpin' For You
TTITLE22=Certainly All
TTITLE23=Going Down Slow
TTITLE24=Something To Remember You By
EXTD=
EXTT0=
EXTT1=
EXTT2=
EXTT3=
EXTT4=
EXTT5=
EXTT6=
EXTT7=
EXTT8=
EXTT9=
EXTT10=
EXTT11=
EXTT12=
EXTT13=
EXTT14=
EXTT15=
EXTT16=
EXTT17=
EXTT18=
EXTT19=
EXTT20=
EXTT21=
EXTT22=
EXTT23=
EXTT24=
PLAYORDER=
